# xmcd
#
# Track frame offsets:
#	150
#	11057
#	23363
#	42165
#	56447
#	82001
#	102569
#	123964
#	145275
#	162270
#
# Disc length: 2559 seconds
#
# Revision: 0
# Processed by: cddbd v1.5.2PL0 Copyright (c) Steve Scherf et al.
# Submitted via: EZCDAudioConverter 1.3.4.1
#
DISCID=7a09fd0a
DTITLE=Air - Moon Safari 2/2
DYEAR=2008
DGENRE=
TTITLE0=Remember [D Whitaker Version]
TTITLE1=Kelly Watch The Stars [Live BBC 1998]
TTITLE2=J'ai Dormi Sous L'Eau [Live BBC 1998]
TTITLE3=Sexy Boy [Live BBC 1998]
TTITLE4=Kelly Watch The Stars [Moog Cookbook Remix]
TTITLE5=Trente Millions D'Amis [Live KCRW 1998]
TTITLE6=You Make It Easy [Live KCRW 1998]
TTITLE7=Bossa 96 [Demo]
TTITLE8=Kelly Watch The Stars [Demo]
TTITLE9=Sexy Boy [Sex Kino Mix]
EXTD=
EXTT0=
EXTT1=
EXTT2=
EXTT3=
EXTT4=
EXTT5=
EXTT6=
EXTT7=
EXTT8=
EXTT9=
PLAYORDER=
